<svg xmlns="http://www.w3.org/2000/svg" width="1440" height="1454" fill="none" viewBox="0 0 1440 1454"><g filter="url(#filter0_d_111_432)"><path fill="#428EFE" d="M1004.5 600C794.155 705.777 135.23 334.14 -9.22339 515.97C-961.602 984.306 -354.138 1085.52 -9.22339 1370.45C-9.22339 1370.45 381.801 1468.42 707.53 1137.41C1033.26 806.402 1519.26 951.908 1519.26 951.908C1519.26 951.908 1784.18 341.919 1519.26 97.423C1254.33 -147.073 1214.85 494.223 1004.5 600Z"/></g><path fill="#587AFF" fill-opacity=".49" fill-rule="evenodd" d="M219.298 1362.72C116.043 1392.65 0.194122 1392.63 -87.1922 1350.56C-176.86 1307.39 -220.053 1226.79 -236.143 1143.45C-252.478 1058.83 -244.069 966.691 -175.451 893.369C-107.32 820.568 4.12799 778.388 115.056 768.175C215.806 758.9 303.658 796.716 380.125 842.22C451.179 884.504 514.313 938.641 522.229 1010.48C529.857 1079.7 305.384 1158.6 419.942 1203.55C534.5 1248.5 310.721 1336.22 219.298 1362.72Z" clip-rule="evenodd"/><circle cx="1402" cy="933" r="92" fill="#93CA35"/><circle cx="91.5" cy="1383.5" r="38.5" fill="#93CA35"/><circle cx="535.5" cy="552.5" r="38.5" fill="#FFCB2A"/><defs><filter id="filter0_d_111_432" width="2269" height="1453.74" x="-576" y=".265" color-interpolation-filters="sRGB" filterUnits="userSpaceOnUse"><feFlood flood-opacity="0" result="BackgroundImageFix"/><feColorMatrix in="SourceAlpha" result="hardAlpha" type="matrix" values="0 0 0 0 0 0 0 0 0 0 0 0 0 0 0 0 0 0 127 0"/><feOffset dy="14"/><feGaussianBlur stdDeviation="28"/><feComposite in2="hardAlpha" operator="out"/><feColorMatrix type="matrix" values="0 0 0 0 0.258824 0 0 0 0 0.401939 0 0 0 0 0.996078 0 0 0 0.51 0"/><feBlend in2="BackgroundImageFix" mode="normal" result="effect1_dropShadow_111_432"/><feBlend in="SourceGraphic" in2="effect1_dropShadow_111_432" mode="normal" result="shape"/></filter></defs></svg>