<svg width="115" height="26" viewBox="0 0 115 26" fill="none" xmlns="http://www.w3.org/2000/svg">
<path d="M0.94104 25.8251H26.5911V0.175049H0.94104V25.8251ZM21.6541 10.532H16.2341V5.11205H21.6541V10.532ZM5.87704 5.11205H11.3001V15.468H21.6541V20.8881H5.87704V5.11205ZM43.2941 0.175049C40.7575 0.175049 38.2779 0.927229 36.1689 2.33646C34.0598 3.74569 32.416 5.74868 31.4453 8.09215C30.4746 10.4356 30.2207 13.0142 30.7155 15.502C31.2104 17.9898 32.4318 20.275 34.2254 22.0686C36.019 23.8623 38.3042 25.0837 40.792 25.5786C43.2799 26.0734 45.8585 25.8196 48.202 24.8489C50.5455 23.8782 52.5484 22.2343 53.9577 20.1252C55.3669 18.0161 56.1191 15.5365 56.1191 13C56.1151 9.59985 54.7626 6.34009 52.3583 3.9358C49.954 1.5315 46.6943 0.179019 43.2941 0.175049ZM43.2941 20.8881C41.734 20.8881 40.2089 20.4254 38.9117 19.5586C37.6146 18.6919 36.6035 17.46 36.0065 16.0186C35.4095 14.5773 35.2533 12.9913 35.5576 11.4611C35.862 9.93105 36.6133 8.52555 37.7164 7.42239C38.8196 6.31924 40.2251 5.56798 41.7552 5.26362C43.2853 4.95926 44.8713 5.11547 46.3127 5.71249C47.754 6.30951 48.986 7.32054 49.8527 8.61775C50.7195 9.91485 51.1821 11.4399 51.1821 13C51.1789 15.0911 50.3468 17.0956 48.8682 18.5742C47.3896 20.0528 45.3851 20.8849 43.2941 20.8881ZM102.013 0.175049C99.4761 0.174859 96.9968 0.926859 94.8876 2.33597C92.7784 3.74508 91.1345 5.748 90.1636 8.09145C89.1928 10.4348 88.9386 13.0136 89.4334 15.5014C89.9281 17.9893 91.1495 20.2746 92.9431 22.0683C94.7366 23.862 97.0218 25.0837 99.5101 25.5786C101.997 26.0735 104.576 25.8195 106.92 24.8489C109.263 23.8782 111.266 22.2344 112.675 20.1253C114.085 18.0162 114.837 15.5366 114.837 13C114.833 9.60005 113.481 6.34041 111.077 3.93615C108.673 1.53188 105.413 0.179289 102.013 0.175049ZM102.013 20.8881C100.453 20.8883 98.9281 20.4257 97.6305 19.5591C96.3332 18.6925 95.322 17.4606 94.7248 16.0193C94.1276 14.578 93.9713 12.9919 94.2755 11.4617C94.5798 9.93165 95.331 8.52605 96.4341 7.42275C97.5372 6.31949 98.9431 5.56813 100.473 5.26369C102.003 4.95925 103.589 5.1154 105.03 5.7124C106.472 6.30939 107.704 7.32041 108.571 8.61765C109.437 9.91485 109.9 11.4399 109.9 13C109.897 15.0909 109.065 17.0952 107.586 18.5738C106.108 20.0524 104.104 20.8847 102.013 20.8881ZM72.6531 0.175049C70.1165 0.175049 67.6369 0.927229 65.5279 2.33646C63.4188 3.74569 61.775 5.74868 60.8043 8.09215C59.8336 10.4356 59.5797 13.0142 60.0745 15.502C60.5694 17.9898 61.7908 20.275 63.5844 22.0686C65.378 23.8623 67.6632 25.0837 70.151 25.5786C72.6388 26.0734 75.2175 25.8196 77.561 24.8489C79.9045 23.8782 81.9074 22.2343 83.3167 20.1252C84.7259 18.0161 85.4781 15.5365 85.4781 13C85.4741 9.59985 84.1216 6.34009 81.7173 3.9358C79.313 1.5315 76.0533 0.179019 72.6531 0.175049ZM72.6531 20.8881C71.1995 20.8888 69.7741 20.4878 68.534 19.7295C67.294 18.9712 66.2875 17.8851 65.6258 16.591C64.9642 15.2968 64.6729 13.8448 64.7843 12.3956C64.8957 10.9463 65.4053 9.55605 66.257 8.37815C67.1087 7.20031 68.2693 6.28066 69.6106 5.72076C70.952 5.16085 72.422 4.98247 73.8583 5.20529C75.2947 5.42812 76.6415 6.04348 77.7502 6.98347C78.8589 7.92345 79.6863 9.15155 80.1411 10.532H72.6531V15.468H80.1411C79.6202 17.0433 78.6166 18.4148 77.2725 19.3876C75.9285 20.3605 74.3123 20.8854 72.6531 20.8881Z" fill="#FF9348"/>
</svg>
